<svg id="b19d21a7-7bc0-44bd-ab2a-ad7473c6bec7" xmlns="http://www.w3.org/2000/svg" viewBox="0 0 979.33 424.84"><defs><style>.cls-1{fill:#ccc;}.cls-2{fill:#f2f2f2;}.cls-3{fill:#6c63ff;}.cls-4{fill:#3f3d56;}.cls-5{fill:#fff;}.cls-6{fill:#e6e6e6;}.cls-7{fill:#ffb6b6;}.cls-8{fill:#e4e4e4;}.cls-9{fill:#2f2e41;}</style></defs><path class="cls-1" d="M883.38,175.26H308.81a9.2,9.2,0,1,0,0,18.4h16.27V413.72a9.2,9.2,0,0,0,18.4,0l.14-220.06H804.77l42.52,220.06a9.2,9.2,0,1,0,18.4,0l2.68-220.06h15a9.2,9.2,0,1,0,0-18.4Z"/><path class="cls-2" d="M408.4,134.27v38.95H310.8a19.49,19.49,0,0,1-1.35-38.95q.68,0,1.35,0Z"/><path class="cls-3" d="M410.8,172.92a1.5,1.5,0,0,1-1.5,1.5H309.07a20.53,20.53,0,0,1,0-41H409.3a1.5,1.5,0,0,1,0,3H309.07a17.53,17.53,0,0,0,0,35.06H409.3A1.5,1.5,0,0,1,410.8,172.92Z"/><path class="cls-1" d="M408.4,143.26H303.52a.3.3,0,0,1,0-.6H408.4a.3.3,0,0,1,.3.3A.31.31,0,0,1,408.4,143.26Z"/><path class="cls-1" d="M408.4,150.45H303.52a.3.3,0,0,1,0-.6H408.4a.3.3,0,0,1,0,.6Z"/><path class="cls-1" d="M408.4,157.64H303.52a.3.3,0,0,1,0-.6H408.4a.3.3,0,1,1,0,.6Z"/><path class="cls-1" d="M408.4,164.83H303.52a.3.3,0,0,1-.3-.29.31.31,0,0,1,.3-.31H408.4a.31.31,0,0,1,.3.31A.3.3,0,0,1,408.4,164.83Z"/><path class="cls-2" d="M390,93.23v39H292.41a19.49,19.49,0,1,1-1.36-38.95c.45,0,.9,0,1.36,0Z"/><path class="cls-4" d="M392.4,131.88a1.5,1.5,0,0,1-1.5,1.5H290.67a20.53,20.53,0,0,1,0-41H390.9a1.5,1.5,0,0,1,0,3H290.67a17.53,17.53,0,0,0,0,35.05H390.9A1.5,1.5,0,0,1,392.4,131.88Z"/><path class="cls-1" d="M390,102.22H285.12a.3.3,0,0,1-.3-.3.29.29,0,0,1,.3-.3H390a.29.29,0,0,1,.3.3A.3.3,0,0,1,390,102.22Z"/><path class="cls-1" d="M390,109.41H285.12a.3.3,0,1,1,0-.6H390a.3.3,0,0,1,.3.3A.29.29,0,0,1,390,109.41Z"/><path class="cls-1" d="M390,116.6H285.12a.3.3,0,1,1,0-.6H390a.3.3,0,0,1,.3.3A.29.29,0,0,1,390,116.6Z"/><path class="cls-1" d="M390,123.79H285.12a.3.3,0,0,1-.3-.29.3.3,0,0,1,.3-.31H390a.3.3,0,0,1,.3.3A.29.29,0,0,1,390,123.79Z"/><path class="cls-1" d="M503.54,313.1v-34a5.66,5.66,0,0,0-5.66-5.66H369.09a5.66,5.66,0,0,0-5.66,5.66v34Z"/><rect class="cls-1" x="363.43" y="325.84" width="140.11" height="43.87"/><path class="cls-1" d="M363.43,382.45v34a5.66,5.66,0,0,0,5.66,5.66H497.88a5.66,5.66,0,0,0,5.66-5.66v-34Z"/><circle class="cls-5" cx="432.78" cy="294.7" r="4.25"/><circle class="cls-5" cx="432.78" cy="351.31" r="4.25"/><circle class="cls-5" cx="433" cy="406.72" r="4.25"/><path class="cls-2" d="M487.65,234.75V273.7H390.06a19.49,19.49,0,1,1-1.36-38.95c.45,0,.9,0,1.36,0Z"/><path class="cls-4" d="M490.05,273.4a1.5,1.5,0,0,1-1.5,1.5H388.32a20.53,20.53,0,1,1,0-41H488.55a1.5,1.5,0,1,1,0,3H388.32a17.53,17.53,0,0,0,0,35.06H488.55A1.5,1.5,0,0,1,490.05,273.4Z"/><path class="cls-1" d="M487.65,243.74H382.77a.3.3,0,0,1,0-.6H487.65a.3.3,0,0,1,0,.6Z"/><path class="cls-1" d="M487.65,250.93H382.77a.3.3,0,0,1,0-.6H487.65a.3.3,0,0,1,.3.3.29.29,0,0,1-.3.3Z"/><path class="cls-1" d="M487.65,258.12H382.77a.3.3,0,0,1,0-.6H487.65a.3.3,0,0,1,.3.3.29.29,0,0,1-.3.3Z"/><path class="cls-1" d="M487.65,265.31H382.77a.3.3,0,0,1-.3-.29.31.31,0,0,1,.3-.31H487.65a.31.31,0,0,1,.3.31.29.29,0,0,1-.3.29Z"/><path class="cls-4" d="M373,80.23H328.57a2.71,2.71,0,0,0-1.22.29l-11.22,5.61A2.06,2.06,0,0,0,315,88.82a2.09,2.09,0,0,0,1.09,1.08l11.22,5.62a2.83,2.83,0,0,0,1.22.28H373a2.33,2.33,0,0,0,2.46-2.17V82.4A2.33,2.33,0,0,0,373,80.23Z"/><path class="cls-3" d="M375.49,82.4V93.63A2.33,2.33,0,0,1,373,95.8h-8.86V80.23H373A2.33,2.33,0,0,1,375.49,82.4Z"/><path class="cls-6" d="M624.64,174.37l-4.7-2-3.22-23.54H573.83l-3.49,23.44-4.2,2.1a1,1,0,0,0,.45,1.89h57.66a1,1,0,0,0,.39-1.92Z"/><path class="cls-1" d="M700.85,152H490.17a4.17,4.17,0,0,1-4.16-4.17V118.11H705v29.71A4.17,4.17,0,0,1,700.85,152Z"/><path class="cls-4" d="M705.24,132.15H485.81V5a5,5,0,0,1,5-5H700.21a5,5,0,0,1,5,5Z"/><path class="cls-5" d="M692.13,122.92H498.92a3.88,3.88,0,0,1-3.88-3.87V13.11a3.88,3.88,0,0,1,3.88-3.88H692.13A3.88,3.88,0,0,1,696,13.11V119.05A3.88,3.88,0,0,1,692.13,122.92Z"/><path class="cls-7" d="M641.24,160.3a11.62,11.62,0,0,1,17.67,2.28L685,157.93l6.7,15.19-37,6a11.68,11.68,0,0,1-13.5-18.87Z"/><path class="cls-3" d="M665.44,179.7l27.25-.34,3.44,0,55.44-.7s15-14.36,28.16-29.15l-1.84-13.29a54.29,54.29,0,0,0-18.2-33.61C740.91,115.11,730,139.94,730,139.94l-34.37,8.22-3.44.83-21.36,5.1Z"/><path class="cls-8" d="M804.91,261.38H754.06c0,2.18-55.6,3.95-55.6,3.95a20.31,20.31,0,0,0-3.33,3.16,19.58,19.58,0,0,0-4.58,12.63v3.16A19.75,19.75,0,0,0,710.29,304h94.62a19.76,19.76,0,0,0,19.74-19.74v-3.16A19.76,19.76,0,0,0,804.91,261.38Z"/><rect class="cls-8" x="747.4" y="303.23" width="20.53" height="118.49"/><path class="cls-8" d="M689,421c0,2.22,31.1.86,69.48.86s69.48,1.36,69.48-.86-31.11-19.81-69.48-19.81S689,418.78,689,421Z"/><polygon class="cls-7" points="675.19 407.46 659.91 407.46 652.64 348.53 675.19 348.53 675.19 407.46"/><path class="cls-9" d="M679.08,422.27H629.82v-.62A19.18,19.18,0,0,1,649,402.47h30.09Z"/><polygon class="cls-7" points="630.03 407.46 614.75 407.46 607.49 348.53 630.03 348.53 630.03 407.46"/><path class="cls-9" d="M633.93,422.27H584.66v-.62a19.19,19.19,0,0,1,19.18-19.18h30.09Z"/><circle class="cls-7" cx="766.89" cy="41.64" r="26.56"/><path class="cls-9" d="M809.88,223.64s8.91,47.13-25,53.13S702,287,702,287L680,389.56l-29.53-2.64s3.92-123.46,13.58-133.12,70.72-38.59,70.72-38.59Z"/><path class="cls-9" d="M743.65,203.89l-14.84,14.88s-107.09,17.25-111.22,42C611.35,298.1,604,379.31,604,379.31l32.2-2.42,12.63-92.31,51.52-11.72,58.61-31.94Z"/><path class="cls-9" d="M792.45,25.78c-2.62-5-6-14.81-11.25-16.64a42.52,42.52,0,0,0-9.06-1.93l-9,3.46L768,6.87c-.95-.06-1.9-.11-2.85-.14l-6.07,2.33,3.1-2.41c-5.66-.06-11.5.53-15.88,4-3.74,2.94-7.45,14.06-8,18.78A35.85,35.85,0,0,0,739,42.93l1.53,1.46a18.43,18.43,0,0,0,1.21-3.84,18.18,18.18,0,0,1,8.7-11.81l.09,0c2.57-1.45,5.7-1.39,8.66-1.28l14,.51c3.38.12,7,.33,9.65,2.45A15.94,15.94,0,0,1,786.7,36c1.31,2.64,3.86,12.6,3.86,12.6s1.45-1.88,2.14-.48a48.16,48.16,0,0,0,2-11.23A22,22,0,0,0,792.45,25.78Z"/><path class="cls-7" d="M885.36,53.3a11.62,11.62,0,0,0-10.83,12.36,12.48,12.48,0,0,0,.31,2L853.48,83.44l6.41,15.31,29.86-22.67a11.68,11.68,0,0,0-4.39-22.78Z"/><path class="cls-3" d="M881.92,85.47l-53.55,59.47s-25.61-8.19-45.42-17.08l-8.89-27.33a54.16,54.16,0,0,1-2.6-19.66c27.45-7.31,59.39,19.87,59.39,19.87l40.08-31.39Z"/><path class="cls-3" d="M757,228c-9.55-3.31-19.43-6.72-30.08-8l-.46,0,.12-.45c11-38.73,8.28-63.5,2.88-100.72A37.57,37.57,0,0,1,751,79.32l.07,0,30.43-1.93h.07l22.14,6.51a15.18,15.18,0,0,1,10.86,14.83c-.23,12.24.27,25.91.81,40.37,1.21,32.46,2.46,66-4.63,87.79l0,.12-.09.07a36.07,36.07,0,0,1-23.08,8.11C777.56,235.15,767.43,231.65,757,228Z"/><path class="cls-1" d="M977.91,424.84H1.42a1.42,1.42,0,1,1,0-2.83H977.91a1.42,1.42,0,1,1,0,2.83Z"/></svg>