<svg id="b19d21a7-7bc0-44bd-ab2a-ad7473c6bec7" xmlns="http://www.w3.org/2000/svg" viewBox="0 0 607.25 422.92"><defs><style>.cls-1{fill:#ccc;}.cls-2{fill:#f2f2f2;}.cls-3{fill:#6c63ff;}.cls-4{fill:#3f3d56;}.cls-5{fill:#fff;}.cls-6{fill:#e6e6e6;}.cls-7{fill:#ffb6b6;}.cls-8{fill:#e4e4e4;}.cls-9{fill:#2f2e41;}</style></defs><path class="cls-1" d="M883.85,175.26H328a9.21,9.21,0,0,0,0,18.4h15.74V413.72a8.9,8.9,0,1,0,17.8,0l.14-220.06h446.1l41.13,220.06a8.9,8.9,0,1,0,17.8,0l2.59-220.06h14.52a9.21,9.21,0,0,0,0-18.4Z" transform="translate(-290.64)"/><path class="cls-2" d="M424.38,134.27v38.95H330c-10.4.38-19.13-8-19.49-18.8s7.78-19.78,18.18-20.15c.44,0,.88,0,1.31,0Z" transform="translate(-290.64)"/><path class="cls-3" d="M426.69,172.92a1.47,1.47,0,0,1-1.44,1.5h-97c-11,0-19.84-9.21-19.83-20.55s8.88-20.49,19.83-20.5h97a1.5,1.5,0,0,1,0,3h-97c-9.36,0-16.94,7.87-16.93,17.55s7.59,17.49,16.93,17.51h97A1.46,1.46,0,0,1,426.69,172.92Z" transform="translate(-290.64)"/><path class="cls-1" d="M424.38,143.26H322.92a.3.3,0,0,1,0-.6H424.38a.29.29,0,0,1,.28.3A.3.3,0,0,1,424.38,143.26Z" transform="translate(-290.64)"/><path class="cls-1" d="M424.38,150.45H322.92a.3.3,0,0,1,0-.6H424.38a.3.3,0,0,1,0,.6Z" transform="translate(-290.64)"/><path class="cls-1" d="M424.38,157.64H322.92a.3.3,0,0,1,0-.6H424.38a.3.3,0,0,1,0,.6Z" transform="translate(-290.64)"/><path class="cls-1" d="M424.38,164.83H322.92a.29.29,0,0,1-.29-.29.3.3,0,0,1,.29-.31H424.38a.3.3,0,0,1,.28.31A.29.29,0,0,1,424.38,164.83Z" transform="translate(-290.64)"/><path class="cls-2" d="M406.58,93.23v39H312.17c-10.41.38-19.14-8-19.5-18.8s7.78-19.78,18.19-20.15c.43,0,.87,0,1.31,0Z" transform="translate(-290.64)"/><path class="cls-4" d="M408.9,131.88a1.48,1.48,0,0,1-1.45,1.5h-97c-11,0-19.86-9.2-19.85-20.53s8.89-20.52,19.85-20.52h97a1.5,1.5,0,0,1,0,3h-97c-9.37,0-16.95,7.86-16.95,17.54s7.59,17.51,16.95,17.51h97A1.48,1.48,0,0,1,408.9,131.88Z" transform="translate(-290.64)"/><path class="cls-1" d="M406.58,102.22H305.12a.3.3,0,0,1,0-.6H406.58a.29.29,0,0,1,.29.3A.31.31,0,0,1,406.58,102.22Z" transform="translate(-290.64)"/><path class="cls-1" d="M406.58,109.41H305.12a.29.29,0,0,1-.29-.3.3.3,0,0,1,.29-.3H406.58a.3.3,0,0,1,0,.6Z" transform="translate(-290.64)"/><path class="cls-1" d="M406.58,116.6H305.12a.29.29,0,0,1-.29-.3.3.3,0,0,1,.29-.3H406.58a.3.3,0,0,1,0,.6Z" transform="translate(-290.64)"/><path class="cls-1" d="M406.58,123.79H305.12a.29.29,0,0,1-.29-.29.3.3,0,0,1,.29-.31H406.58a.3.3,0,0,1,0,.6Z" transform="translate(-290.64)"/><path class="cls-1" d="M516.41,313.1v-34a5.57,5.57,0,0,0-5.48-5.66H386.35a5.57,5.57,0,0,0-5.48,5.66v34Z" transform="translate(-290.64)"/><rect class="cls-1" x="90.24" y="325.84" width="135.53" height="43.87"/><path class="cls-1" d="M380.87,382.45v34a5.57,5.57,0,0,0,5.48,5.66H510.93a5.57,5.57,0,0,0,5.48-5.66v-34Z" transform="translate(-290.64)"/><ellipse class="cls-5" cx="157.32" cy="294.7" rx="4.11" ry="4.25"/><ellipse class="cls-5" cx="157.32" cy="351.31" rx="4.11" ry="4.25"/><ellipse class="cls-5" cx="157.54" cy="406.72" rx="4.11" ry="4.25"/><path class="cls-2" d="M501,234.75V273.7H406.63c-10.41.38-19.14-8-19.5-18.8s7.78-19.78,18.19-20.15c.44,0,.87,0,1.31,0Z" transform="translate(-290.64)"/><path class="cls-4" d="M503.36,273.4a1.48,1.48,0,0,1-1.45,1.5H405c-11,0-19.86-9.18-19.87-20.51s8.88-20.53,19.84-20.54h97a1.5,1.5,0,0,1,0,3H405c-9.37,0-16.95,7.87-16.94,17.55s7.59,17.49,16.94,17.51h97A1.47,1.47,0,0,1,503.36,273.4Z" transform="translate(-290.64)"/><path class="cls-1" d="M501,243.74H399.59a.3.3,0,0,1,0-.6H501a.3.3,0,0,1,0,.6Z" transform="translate(-290.64)"/><path class="cls-1" d="M501,250.93H399.59a.3.3,0,0,1,0-.6H501a.3.3,0,0,1,.29.3.29.29,0,0,1-.29.3Z" transform="translate(-290.64)"/><path class="cls-1" d="M501,258.12H399.59a.3.3,0,0,1,0-.6H501a.3.3,0,0,1,.29.3.29.29,0,0,1-.29.3Z" transform="translate(-290.64)"/><path class="cls-1" d="M501,265.31H399.59a.3.3,0,0,1-.3-.29.31.31,0,0,1,.29-.31H501a.31.31,0,0,1,.29.31.29.29,0,0,1-.29.29Z" transform="translate(-290.64)"/><path class="cls-4" d="M390.16,80.23h-43a2.54,2.54,0,0,0-1.18.29l-10.86,5.61a2.08,2.08,0,0,0-1,2.69,2,2,0,0,0,1,1.08L346,95.52a2.66,2.66,0,0,0,1.18.28h43a2.28,2.28,0,0,0,2.38-2.17V82.4A2.28,2.28,0,0,0,390.16,80.23Z" transform="translate(-290.64)"/><path class="cls-3" d="M392.54,82.4V93.63a2.28,2.28,0,0,1-2.38,2.17h-8.57V80.23h8.57A2.28,2.28,0,0,1,392.54,82.4Z" transform="translate(-290.64)"/><path class="cls-6" d="M633.55,174.37l-4.54-2-3.11-23.54H584.41L581,172.3,577,174.4a1,1,0,0,0-.43,1.34.94.94,0,0,0,.86.55h55.78a1,1,0,0,0,1-1A1,1,0,0,0,633.55,174.37Z" transform="translate(-290.64)"/><path class="cls-1" d="M707.28,152H503.48a4.1,4.1,0,0,1-4-4.17V118.11H711.31v29.71A4.1,4.1,0,0,1,707.28,152Z" transform="translate(-290.64)"/><path class="cls-4" d="M711.53,132.15H499.26V5a5,5,0,0,1,4.87-5H706.66a5,5,0,0,1,4.87,5Z" transform="translate(-290.64)"/><path class="cls-5" d="M698.85,122.92H511.94a3.81,3.81,0,0,1-3.75-3.87V13.11a3.81,3.81,0,0,1,3.75-3.88H698.85a3.81,3.81,0,0,1,3.75,3.88V119.05A3.81,3.81,0,0,1,698.85,122.92Z" transform="translate(-290.64)"/><path class="cls-7" d="M649.62,160.3a11,11,0,0,1,15.88.66,11.38,11.38,0,0,1,1.21,1.62L692,157.93l6.48,15.19-35.79,6a11.11,11.11,0,0,1-15.35-4.61A12,12,0,0,1,649.62,160.3Z" transform="translate(-290.64)"/><path class="cls-3" d="M673,179.7l26.35-.34,3.34,0,53.62-.7s14.56-14.36,27.24-29.15l-1.77-13.29a54.91,54.91,0,0,0-17.61-33.61c-18.16,12.54-28.7,37.37-28.7,37.37l-33.24,8.22-3.33.83-20.66,5.1Z" transform="translate(-290.64)"/><path class="cls-8" d="M808,261.38h-49.2c0,2.18-53.78,3.95-53.78,3.95a19.25,19.25,0,0,0-3.22,3.16,20,20,0,0,0-4.43,12.63v3.16c0,10.9,8.55,19.73,19.09,19.74H808c10.54,0,19.08-8.85,19.09-19.74v-3.16C827,270.22,818.49,261.4,808,261.38Z" transform="translate(-290.64)"/><rect class="cls-8" x="461.68" y="303.23" width="19.86" height="118.49"/><path class="cls-8" d="M695.79,421c0,2.22,30.1.86,67.22.86s67.21,1.36,67.21-.86S800.13,401.19,763,401.19,695.79,418.78,695.79,421Z" transform="translate(-290.64)"/><polygon class="cls-7" points="391.82 407.46 377.04 407.46 370.01 348.53 391.82 348.53 391.82 407.46"/><path class="cls-9" d="M686.22,422.27H638.57v-.62c0-10.59,8.3-19.18,18.55-19.18h29.1Z" transform="translate(-290.64)"/><polygon class="cls-7" points="348.13 407.46 333.36 407.46 326.32 348.53 348.14 348.53 348.13 407.46"/><path class="cls-9" d="M642.54,422.27H594.89v-.62c0-10.59,8.3-19.18,18.55-19.18h29.1Z" transform="translate(-290.64)"/><ellipse class="cls-7" cx="480.52" cy="41.64" rx="25.7" ry="26.56"/><path class="cls-9" d="M812.75,223.64s8.62,47.13-24.18,53.13S708.41,287,708.41,287L687.14,389.56l-28.57-2.64s3.8-123.46,13.14-133.12,68.41-38.59,68.41-38.59Z" transform="translate(-290.64)"/><path class="cls-9" d="M748.68,203.89l-14.35,14.88s-103.6,17.25-107.59,42c-6,37.35-13.16,118.56-13.16,118.56l31.14-2.42,12.22-92.31,49.83-11.72,56.71-31.94Z" transform="translate(-290.64)"/><path class="cls-9" d="M795.89,25.78c-2.54-5-5.76-14.81-10.88-16.64a39.88,39.88,0,0,0-8.76-1.93l-8.71,3.46,4.74-3.8c-.92-.06-1.84-.11-2.76-.14l-5.88,2.33,3-2.41c-5.48-.06-11.13.53-15.37,4-3.61,2.94-7.2,14.06-7.78,18.78a37.11,37.11,0,0,0,.64,13.53l1.49,1.46a19.59,19.59,0,0,0,1.17-3.84,18.14,18.14,0,0,1,8.41-11.81l.09,0c2.49-1.45,5.52-1.39,8.38-1.28l13.58.51c3.27.12,6.79.33,9.33,2.45A15.89,15.89,0,0,1,790.33,36c1.26,2.64,3.74,12.6,3.74,12.6s1.4-1.88,2.07-.48a50.24,50.24,0,0,0,2-11.23A22.72,22.72,0,0,0,795.89,25.78Z" transform="translate(-290.64)"/><path class="cls-7" d="M885.77,53.3a11.49,11.49,0,0,0-10.48,12.36,12.48,12.48,0,0,0,.31,2L854.93,83.44l6.2,15.31L890,76.08a11.77,11.77,0,0,0,7.34-14.68,11.32,11.32,0,0,0-11.58-8.1Z" transform="translate(-290.64)"/><path class="cls-3" d="M882.44,85.47l-51.8,59.47s-24.78-8.19-43.94-17.08l-8.6-27.33a56.12,56.12,0,0,1-2.52-19.66C802.14,73.56,833,100.74,833,100.74l38.78-31.39Z" transform="translate(-290.64)"/><path class="cls-3" d="M761.56,228c-9.24-3.31-18.8-6.72-29.1-8l-.45,0,.13-.45c10.67-38.73,8-63.5,2.77-100.72-2.28-16.49,6.2-32.56,20.85-39.5l.06,0,29.44-1.93h.07l21.41,6.51a15.16,15.16,0,0,1,10.52,14.83c-.24,12.24.26,25.91.78,40.37,1.16,32.46,2.37,66-4.48,87.79l0,.12-.09.07a34.18,34.18,0,0,1-22.33,8.11C781.49,235.15,771.68,231.65,761.56,228Z" transform="translate(-290.64)"/></svg>